<svg xmlns="http://www.w3.org/2000/svg" xmlns:xlink="http://www.w3.org/1999/xlink" width="500" zoomAndPan="magnify" viewBox="0 0 375 374.999991" height="500" preserveAspectRatio="xMidYMid meet" version="1.0"><defs><clipPath id="id1"><path d="M 31.109375 28.800781 L 258 28.800781 L 258 255 L 31.109375 255 Z M 31.109375 28.800781 " clip-rule="nonzero"/></clipPath><clipPath id="id2"><path d="M 118 120 L 343.859375 120 L 343.859375 346.050781 L 118 346.050781 Z M 118 120 " clip-rule="nonzero"/></clipPath></defs><g clip-path="url(#id1)"><path fill="#000000" d="M 203.769531 96.535156 C 198.234375 96.535156 192.910156 94.492188 188.753906 90.839844 C 176.8125 80.355469 161.203125 73.96875 144.0625 73.96875 C 106.578125 73.96875 76.195312 104.320312 76.195312 141.75 C 76.183594 179.175781 106.578125 209.503906 144.0625 209.503906 L 234.539062 209.503906 C 247.035156 209.503906 257.167969 219.621094 257.167969 232.097656 C 257.167969 244.574219 247.035156 254.691406 234.539062 254.691406 L 144.0625 254.691406 C 81.613281 254.683594 30.972656 204.117188 30.972656 141.742188 C 30.972656 79.355469 81.613281 28.832031 144.0625 28.800781 C 172.664062 28.816406 198.789062 39.429688 218.703125 56.917969 C 234.398438 70.695312 224.667969 96.535156 203.769531 96.535156 Z M 203.769531 96.535156 " fill-opacity="1" fill-rule="nonzero"/></g><g clip-path="url(#id2)"><path fill="#000000" d="M 171.550781 278.355469 C 177.078125 278.355469 182.40625 280.398438 186.5625 284.042969 C 198.5 294.519531 214.101562 300.914062 231.246094 300.914062 C 268.832031 300.914062 299.273438 270.355469 299.097656 232.804688 C 298.921875 195.382812 267.972656 165.359375 230.496094 165.359375 L 140.769531 165.359375 C 128.273438 165.359375 118.148438 155.246094 118.148438 142.769531 C 118.148438 130.296875 128.273438 120.183594 140.769531 120.183594 L 231.253906 120.183594 C 293.695312 120.183594 344.359375 170.753906 344.359375 233.125 C 344.359375 295.503906 293.703125 346.039062 231.253906 346.066406 C 202.648438 346.046875 176.535156 335.4375 156.625 317.953125 C 140.921875 304.1875 150.65625 278.355469 171.550781 278.355469 Z M 171.550781 278.355469 " fill-opacity="1" fill-rule="nonzero"/></g></svg>